<svg xmlns="http://www.w3.org/2000/svg" width="375" viewBox="0 0 375 375" height="375" version="1.0"><path d="M 194.246094 67.617188 C 149.925781 67.617188 113.996094 103.542969 113.996094 147.867188 C 113.996094 192.1875 149.925781 228.117188 194.246094 228.117188 C 238.566406 228.117188 274.496094 192.1875 274.496094 147.867188 C 274.496094 103.542969 238.566406 67.617188 194.246094 67.617188"/><g><g><g><path d="M 7.5625 -8.652344 C 9.351562 -9.117188 11.371094 -10.203125 11.371094 -12.769531 C 11.371094 -16.058594 7.328125 -16.238281 6.164062 -16.238281 L 1.242188 -16.238281 L 1.242188 0.0273438 L 5.699219 0.0273438 C 6.398438 0.0273438 11.941406 -0.078125 11.941406 -4.480469 C 11.941406 -7.304688 9.789062 -8.367188 7.5625 -8.652344 Z M 5.179688 -15.824219 C 7.667969 -15.824219 9.402344 -15.023438 9.402344 -12.484375 C 9.402344 -9.945312 7.535156 -8.726562 4.507812 -8.726562 L 3.082031 -8.726562 L 3.082031 -15.824219 Z M 4.507812 -0.386719 L 3.082031 -0.386719 L 3.082031 -8.3125 L 5.179688 -8.3125 C 9.117188 -8.3125 9.972656 -6.269531 9.972656 -4.195312 C 9.972656 -1.140625 7.484375 -0.386719 4.507812 -0.386719 Z M 4.507812 -0.386719" transform="translate(48.48 259.975)"/></g></g></g><g><g><g><path d="M 9.480469 -15.824219 L 9.480469 -16.238281 L 1.242188 -16.238281 L 1.242188 0.0273438 L 9.480469 0.0273438 L 9.480469 -0.386719 L 3.082031 -0.386719 L 3.082031 -8.261719 L 8.78125 -8.261719 L 8.78125 -8.675781 L 3.082031 -8.675781 L 3.082031 -15.824219 Z M 9.480469 -15.824219" transform="translate(66.634 259.975)"/></g></g></g><g><g><g><path d="M 14.453125 -16.238281 L 14.039062 -16.238281 L 14.039062 -2.460938 L 1.296875 -16.550781 L 1.242188 -16.550781 L 1.242188 0.0273438 L 1.65625 0.0273438 L 1.65625 -13.597656 L 14.375 0.492188 L 14.453125 0.492188 Z M 14.453125 -16.238281" transform="translate(82.405 259.975)"/></g></g></g><g><g><g><path d="M 1.21875 -16.238281 L 1.21875 0.414062 C 1.21875 2.980469 0.855469 4.609375 -1.710938 4.609375 L -1.710938 5.023438 C 1.347656 5.023438 3.082031 2.902344 3.082031 0.414062 L 3.082031 -16.238281 Z M 1.21875 -16.238281" transform="translate(103.407 259.975)"/></g></g></g><g><g><g><path d="M 13.546875 0.0273438 L 15.539062 0.0273438 L 8.417969 -16.550781 L 8.289062 -16.550781 L 0.90625 0.0273438 L 1.476562 0.0273438 L 4.402344 -6.5 L 10.722656 -6.5 Z M 4.585938 -6.941406 L 7.613281 -13.753906 L 10.542969 -6.941406 Z M 4.585938 -6.941406" transform="translate(113.015 259.975)"/></g></g></g><g><g><g><path d="M 17.742188 -16.550781 L 17.691406 -16.550781 L 10.410156 -2.769531 L 3.238281 -16.550781 L 3.160156 -16.550781 L 0.933594 0.0273438 L 1.347656 0.0273438 L 3.082031 -12.820312 L 9.53125 -0.414062 L 9.636719 -0.414062 L 16.292969 -13.027344 L 17.820312 0.0273438 L 19.683594 0.0273438 Z M 17.742188 -16.550781" transform="translate(134.664 259.975)"/></g></g></g><g><g><g><path d="M 1.503906 0.0273438 L 3.339844 0.0273438 L 3.339844 -16.238281 L 1.503906 -16.238281 Z M 1.503906 0.0273438" transform="translate(160.586 259.975)"/></g></g></g><g><g><g><path d="M 14.453125 -16.238281 L 14.039062 -16.238281 L 14.039062 -2.460938 L 1.296875 -16.550781 L 1.242188 -16.550781 L 1.242188 0.0273438 L 1.65625 0.0273438 L 1.65625 -13.597656 L 14.375 0.492188 L 14.453125 0.492188 Z M 14.453125 -16.238281" transform="translate(170.738 259.975)"/></g></g></g><g><g><g><path d="M 9.945312 -16.550781 C 5.285156 -16.550781 1.035156 -14.0625 1.035156 -8.054688 C 1.035156 -1.140625 6.683594 0.492188 9.945312 0.492188 C 13.183594 0.492188 18.855469 -1.140625 18.855469 -8.054688 C 18.855469 -14.0625 14.582031 -16.550781 9.945312 -16.550781 Z M 9.945312 0.0507812 C 7.019531 0.0507812 2.925781 -1.242188 2.925781 -8.054688 C 2.925781 -14.761719 7.433594 -16.136719 9.945312 -16.136719 C 12.457031 -16.136719 16.964844 -14.761719 16.964844 -8.054688 C 16.964844 -1.242188 12.847656 0.0507812 9.945312 0.0507812 Z M 9.945312 0.0507812" transform="translate(203.394 259.975)"/></g></g></g><g><g><g><path d="M 12.613281 -16.238281 L 7.691406 -7.976562 L 2.953125 -16.238281 L 0.828125 -16.238281 L 6.0625 -7.070312 L 6.0625 0.0273438 L 7.925781 0.0273438 L 7.925781 -7.5625 L 13.132812 -16.238281 Z M 12.613281 -16.238281" transform="translate(228.616 259.975)"/></g></g></g><g><g><g><path d="M 9.480469 -15.824219 L 9.480469 -16.238281 L 1.242188 -16.238281 L 1.242188 0.0273438 L 9.480469 0.0273438 L 9.480469 -0.386719 L 3.082031 -0.386719 L 3.082031 -8.261719 L 8.78125 -8.261719 L 8.78125 -8.675781 L 3.082031 -8.675781 L 3.082031 -15.824219 Z M 9.480469 -15.824219" transform="translate(247.78 259.975)"/></g></g></g><g><g><g><path d="M 1.242188 0.0273438 L 3.082031 0.0273438 L 3.082031 -16.238281 L 1.242188 -16.238281 Z M 5.101562 -9.375 L 11.785156 -16.238281 L 11.1875 -16.238281 L 3.523438 -8.367188 L 10.695312 0.0273438 L 13.132812 0.0273438 Z M 5.101562 -9.375" transform="translate(263.55 259.975)"/></g></g></g><g><g><g><path d="M 9.945312 -16.550781 C 5.285156 -16.550781 1.035156 -14.0625 1.035156 -8.054688 C 1.035156 -1.140625 6.683594 0.492188 9.945312 0.492188 C 13.183594 0.492188 18.855469 -1.140625 18.855469 -8.054688 C 18.855469 -14.0625 14.582031 -16.550781 9.945312 -16.550781 Z M 9.945312 0.0507812 C 7.019531 0.0507812 2.925781 -1.242188 2.925781 -8.054688 C 2.925781 -14.761719 7.433594 -16.136719 9.945312 -16.136719 C 12.457031 -16.136719 16.964844 -14.761719 16.964844 -8.054688 C 16.964844 -1.242188 12.847656 0.0507812 9.945312 0.0507812 Z M 9.945312 0.0507812" transform="translate(282.766 259.975)"/></g></g></g><g><g><g><path d="M 3.082031 -0.386719 L 3.082031 -16.238281 L 1.242188 -16.238281 L 1.242188 0.0273438 L 9.558594 0.0273438 L 9.558594 -0.386719 Z M 3.082031 -0.386719" transform="translate(307.988 259.975)"/></g></g></g><g><g><g><path d="M 13.546875 0.0273438 L 15.539062 0.0273438 L 8.417969 -16.550781 L 8.289062 -16.550781 L 0.90625 0.0273438 L 1.476562 0.0273438 L 4.402344 -6.5 L 10.722656 -6.5 Z M 4.585938 -6.941406 L 7.613281 -13.753906 L 10.542969 -6.941406 Z M 4.585938 -6.941406" transform="translate(323.733 259.975)"/></g></g></g><g fill="#FFF"><g><g><path d="M 43.410156 -49.652344 C 53.664062 -52.328125 65.261719 -58.570312 65.261719 -73.289062 C 65.261719 -92.167969 42.070312 -93.207031 35.378906 -93.207031 L 7.136719 -93.207031 L 7.136719 0.148438 L 32.703125 0.148438 C 36.71875 0.148438 68.53125 -0.445312 68.53125 -25.71875 C 68.53125 -41.921875 56.191406 -48.015625 43.410156 -49.652344 Z M 29.730469 -90.832031 C 44.003906 -90.832031 53.964844 -86.222656 53.964844 -71.652344 C 53.964844 -57.085938 43.257812 -50.097656 25.867188 -50.097656 L 17.691406 -50.097656 L 17.691406 -90.832031 Z M 25.867188 -2.230469 L 17.691406 -2.230469 L 17.691406 -47.71875 L 29.730469 -47.71875 C 52.328125 -47.71875 57.234375 -35.976562 57.234375 -24.082031 C 57.234375 -6.539062 42.960938 -2.230469 25.867188 -2.230469 Z M 25.867188 -2.230469" transform="translate(115.149 170.302)"/></g></g></g><g fill="#FFF"><g><g><path d="M 47.554688 -79.132812 C 25.261719 -79.132812 4.953125 -67.246094 4.953125 -38.515625 C 4.953125 -5.449219 31.949219 2.351562 47.554688 2.351562 C 63.035156 2.351562 90.15625 -5.449219 90.15625 -38.515625 C 90.15625 -67.246094 69.722656 -79.132812 47.554688 -79.132812 Z M 47.554688 0.246094 C 33.5625 0.246094 13.992188 -5.945312 13.992188 -38.515625 C 13.992188 -70.589844 35.542969 -77.152344 47.554688 -77.152344 C 59.566406 -77.152344 81.113281 -70.589844 81.113281 -38.515625 C 81.113281 -5.945312 61.425781 0.246094 47.554688 0.246094 Z M 47.554688 0.246094" transform="translate(198.817 215.016)"/></g></g></g></svg>