<svg xmlns="http://www.w3.org/2000/svg" width="375" viewBox="0 0 375 375" height="375" version="1.0"><g fill="#FFF"><g><g><path d="M 127.25 -75.484375 C 135.78125 -72.328125 142.378906 -67.722656 147.046875 -61.671875 C 151.722656 -55.617188 154.0625 -48.332031 154.0625 -39.8125 C 154.0625 -27.15625 148.835938 -17.351562 138.390625 -10.40625 C 127.941406 -3.46875 112.816406 0 93.015625 0 L 11.75 0 L 11.75 -144.375 L 88.890625 -144.375 C 108.140625 -144.375 122.679688 -140.9375 132.515625 -134.0625 C 142.347656 -127.1875 147.265625 -118.039062 147.265625 -106.625 C 147.265625 -99.894531 145.578125 -93.847656 142.203125 -88.484375 C 138.835938 -83.117188 133.851562 -78.785156 127.25 -75.484375 Z M 59.609375 -110.34375 L 59.609375 -88.890625 L 82.296875 -88.890625 C 92.878906 -88.890625 98.171875 -92.46875 98.171875 -99.625 C 98.171875 -106.769531 92.878906 -110.34375 82.296875 -110.34375 Z M 88.890625 -34.03125 C 99.617188 -34.03125 104.984375 -37.8125 104.984375 -45.375 C 104.984375 -52.9375 99.617188 -56.71875 88.890625 -56.71875 L 59.609375 -56.71875 L 59.609375 -34.03125 Z M 88.890625 -34.03125" transform="translate(70.581 213.107)"/></g></g></g><g fill="#FFF"><g><g><path d="M 87.140625 2.890625 C 71.890625 2.890625 58.1875 -0.335938 46.03125 -6.796875 C 33.882812 -13.253906 24.34375 -22.179688 17.40625 -33.578125 C 10.46875 -44.972656 7 -57.8125 7 -72.09375 C 7 -86.382812 10.46875 -99.226562 17.40625 -110.625 C 24.34375 -122.019531 33.882812 -130.941406 46.03125 -137.390625 C 58.1875 -143.847656 71.890625 -147.078125 87.140625 -147.078125 C 102.378906 -147.078125 116.078125 -143.847656 128.234375 -137.390625 C 140.390625 -130.941406 149.929688 -122.019531 156.859375 -110.625 C 163.796875 -99.226562 167.265625 -86.382812 167.265625 -72.09375 C 167.265625 -57.8125 163.796875 -44.972656 156.859375 -33.578125 C 149.929688 -22.179688 140.390625 -13.253906 128.234375 -6.796875 C 116.078125 -0.335938 102.378906 2.890625 87.140625 2.890625 Z M 87.140625 -30.90625 C 94.421875 -30.90625 101.007812 -32.617188 106.90625 -36.046875 C 112.8125 -39.484375 117.484375 -44.328125 120.921875 -50.578125 C 124.359375 -56.828125 126.078125 -64 126.078125 -72.09375 C 126.078125 -80.195312 124.359375 -87.375 120.921875 -93.625 C 117.484375 -99.875 112.8125 -104.710938 106.90625 -108.140625 C 101.007812 -111.578125 94.421875 -113.296875 87.140625 -113.296875 C 79.859375 -113.296875 73.265625 -111.578125 67.359375 -108.140625 C 61.453125 -104.710938 56.78125 -99.875 53.34375 -93.625 C 49.914062 -87.375 48.203125 -80.195312 48.203125 -72.09375 C 48.203125 -64 49.914062 -56.828125 53.34375 -50.578125 C 56.78125 -44.328125 61.453125 -39.484375 67.359375 -36.046875 C 73.265625 -32.617188 79.859375 -30.90625 87.140625 -30.90625 Z M 87.140625 -30.90625" transform="translate(158.39 306.428)"/></g></g></g></svg>